{"title":"Agent Vinod (2012) Hindi Movie DVDRip x264 300MB 480p {DAKU RG} ","uid":9390029,"size":314797896,"categoryP":"video","categoryS":"movies","magnet":"?xt=urn:btih:4d9c73d68a24b8276b62652dde681e9460156a07&amp;dn=Agent+Vinod+%282012%29+Hindi+Movie+DVDRip+x264+300MB+480p+%7BDAKU+RG%7D+&amp;tr=udp%3A%2F%2Ftracker.openbittorrent.com%3A80&amp;tr=udp%3A%2F%2Fopen.demonii.com%3A1337&amp;tr=udp%3A%2F%2Ftracker.coppersurfer.tk%3A6969&amp;tr=udp%3A%2F%2Fexodus.desync.com%3A6969","seeders":4,"leechers":1,"uploader":"Palash995","files":1,"time":1387871102,"description":"Agent Vinod (2012) Hindi Movie DVDRip x264 300MB 480p\n\n[img]http://www.aceshowbiz.com/images/still/agent-vinod-poster03.jpg[/img]\n\n[img]http://www.tamilstar.com/wallpaper/file/143/2560x1600/none/agent-vinod-3.jpg[/img]\n\nGenre: Action\nDirector: Sriram Raghavan\nRelease Date: 23 March 2012\nStars: Kareena Kapoor, Saif Ali Khan and Malika Haydon\n\nStoryline: A series of seemingly unconnected events across the world leads to Agent Vinod undertaking a globe-trotting mission to discover why his colleague was murdered.\n\nScreenshots:-\n\n\n\n\n\nMedia Info:-\n\nGeneral\n\nComplete name                            : Agent Vinod (2012) Hindi Movie DVDRip x264 300MB 480p {DAKU RG} {GreatPalash}.mkv\nFormat                                   : Matroska\nFormat version                           : Version 4 / Version 2\nFile size                                : 300 MiB\nDuration                                 : 2h 30mn\nOverall bit rate mode                    : Variable\nOverall bit rate                         : 279 Kbps\nMovie name                               : Agent Vinod (2012) Hindi Movie DVDRip x264 300MB 480p {DAKU RG} {GreatPalash}\nEncoded date                             : UTC 2013-12-24 05:58:37\nWriting application                      : mkvmerge v6.5.0 ('Isn't she lovely') built on Oct 20 2013 12:50:05\nWriting library                          : libebml v1.3.0 + libmatroska v1.4.1\n\nVideo\nID                                       : 1\nFormat                                   : AVC\nFormat/Info                              : Advanced Video Codec\nFormat profile                           : &lt;a class=&quot;__cf_email__&quot; href=&quot;/cdn-cgi/l/email-protection&quot; data-cfemail=&quot;a6eecfc1cee6ea958897&quot;&gt;[email&amp;#160;protected]&lt;/a&gt;&lt;script cf-hash='f9e31' type=&quot;text/javascript&quot;&gt;\n/* &lt;![CDATA[ */!function(){try{var t=&quot;currentScript&quot;in document?document.currentScript:function(){for(var t=document.getElementsByTagName(&quot;script&quot;),e=t.length;e--;)if(t[e].getAttribute(&quot;cf-hash&quot;))return t[e]}();if(t&amp;&amp;t.previousSibling){var e,r,n,i,c=t.previousSibling,a=c.getAttribute(&quot;data-cfemail&quot;);if(a){for(e=&quot;&quot;,r=parseInt(a.substr(0,2),16),n=2;a.length-n;n+=2)i=parseInt(a.substr(n,2),16)^r,e+=String.fromCharCode(i);e=document.createTextNode(e),c.parentNode.replaceChild(e,c)}}}catch(u){}}();/* ]]&gt; */&lt;/script&gt;\nFormat settings, CABAC                   : Yes\nFormat settings, ReFrames                : 16 frames\nCodec ID                                 : V_MPEG4/ISO/AVC\nDuration                                 : 2h 30mn\nBit rate                                 : 255 Kbps\nWidth                                    : 608 pixels\nHeight                                   : 256 pixels\nDisplay aspect ratio                     : 2.40:1\nFrame rate mode                          : Constant\nFrame rate                               : 23.976 fps\nColor space                              : YUV\nChroma subsampling                       : 4:2:0\nBit depth                                : 8 bits\nScan type                                : Progressive\nBits/(Pixel*Frame)                       : 0.068\nStream size                              : 275 MiB (92%)\nTitle                                    : {GreatPalash}\nWriting library                          : x264 core 120 r2164 da19765\nDefault                                  : Yes\nForced                                   : No\n\nAudio\nID                                       : 2\nFormat                                   : Vorbis\nCodec ID                                 : A_VORBIS\nDuration                                 : 2h 30mn\nBit rate mode                            : Variable\nBit rate                                 : 18.0 Kbps\nChannel(s)                               : 2 channels\nSampling rate                            : 8 000 Hz\nCompression mode                         : Lossy\nStream size                              : 19.4 MiB (6%)\nTitle                                    : {GreatPalash}\nWriting library                          : aoTuV 20110424 (UTC 2011-04-24)\nLanguage                                 : Hindi\nDefault                                  : Yes\nForced                                   : No\n\n[IMG]http://imageshack.us/a/img89/4822/zka.gif[/IMG]\n\n[IMG]http://imageshack.us/a/img200/185/tj8.gif[/IMG]\n\n[IMG]http://imageshack.us/a/img593/9603/ua8.gif[/IMG]\n\n[IMG]http://imageshack.us/a/img707/5608/ysmp.png[/IMG]","torrent":{"xt":"urn:btih:4d9c73d68a24b8276b62652dde681e9460156a07","amp;dn":"Agent+Vinod+%282012%29+Hindi+Movie+DVDRip+x264+300MB+480p+%7BDAKU+RG%7D+","amp;tr":["udp%3A%2F%2Ftracker.openbittorrent.com%3A80","udp%3A%2F%2Fopen.demonii.com%3A1337","udp%3A%2F%2Ftracker.coppersurfer.tk%3A6969","udp%3A%2F%2Fexodus.desync.com%3A6969"],"infoHash":"4d9c73d68a24b8276b62652dde681e9460156a07","infoHashBuffer":{"type":"Buffer","data":[77,156,115,214,138,36,184,39,107,98,101,45,222,104,30,148,96,21,106,7]},"announce":[],"urlList":[]}}